<svg viewBox="0 0 48 48" fill="none" xmlns="http://www.w3.org/2000/svg">
  <!-- Background -->
  <rect width="48" height="48" rx="8" fill="#0A1020"/>
  
  <!-- B shape - left side -->
  <path
    d="M8 4 L8 44 L20 44 C26 44 30 40 30 35 C30 30 27 27 24 26 C27 25 29 22 29 18 C29 12 25 8 19 8 L19 4 Z"
    fill="#3B82F6"
  />
  
  <!-- B cutout top -->
  <path d="M14 12 L14 22 L18 22 C21 22 23 20 23 17 C23 14 21 12 18 12 Z" fill="#0A1020" />
  
  <!-- B cutout bottom -->
  <path d="M14 28 L14 40 L19 40 C23 40 25 37 25 34 C25 31 23 28 19 28 Z" fill="#0A1020" />
  
  <!-- K shape top diagonal -->
  <path
    d="M24 24 L40 6 L40 4 L32 4 L20 18 L20 8 L19 8 L19 26 Z"
    fill="#3B82F6"
  />
  
  <!-- K shape bottom diagonal with glow color -->
  <path
    d="M20 30 L20 44 L28 44 L28 34 L40 48 L40 44 L30 30 L40 18 L40 14 L26 28 Z"
    fill="#60A5FA"
  />
</svg>
